<svg width="25" height="25" viewBox="0 0 25 25" fill="none" xmlns="http://www.w3.org/2000/svg">
<g clip-path="url(#clip0)">
<path d="M8.46646 18.397C6.93587 18.397 5.69064 19.6422 5.69064 21.1728C5.69064 22.7034 6.93587 23.9486 8.46646 23.9486C9.99706 23.9486 11.2423 22.7034 11.2423 21.1728C11.2423 19.6422 9.99701 18.397 8.46646 18.397ZM8.46646 22.2831C7.85411 22.2831 7.35615 21.7851 7.35615 21.1728C7.35615 20.5604 7.85411 20.0625 8.46646 20.0625C9.07851 20.0625 9.57677 20.5604 9.57677 21.1728C9.57677 21.7851 9.07881 22.2831 8.46646 22.2831Z"/>
<path d="M16.6829 18.397C15.1523 18.397 13.9071 19.6422 13.9071 21.1728C13.9071 22.7034 15.1523 23.9486 16.6829 23.9486C18.2135 23.9486 19.4587 22.7034 19.4587 21.1728C19.4587 19.6422 18.2135 18.397 16.6829 18.397ZM16.6829 22.2831C16.0706 22.2831 15.5726 21.7851 15.5726 21.1728C15.5726 20.5604 16.0706 20.0625 16.6829 20.0625C17.2953 20.0625 17.7932 20.5604 17.7932 21.1728C17.7932 21.7851 17.2953 22.2831 16.6829 22.2831Z"/>
<path d="M21.4982 7.38592C21.34 7.18716 21.1002 7.07144 20.8465 7.07144H6.26521L5.50825 3.24581C5.44191 2.91076 5.17766 2.65012 4.84149 2.58851L1.51052 1.97783C1.05726 1.89427 0.624222 2.19437 0.541221 2.64682C0.458221 3.09926 0.757718 3.53311 1.21021 3.61612L3.98435 4.12464L6.42817 16.4767C6.50533 16.8667 6.84759 17.1479 7.24508 17.1479H18.9035C19.2912 17.1479 19.6274 16.8806 19.7148 16.5022L21.6579 8.09154C21.715 7.84421 21.6562 7.58439 21.4982 7.38592ZM18.2411 15.4824H7.929L6.59468 8.73721H19.7992L18.2411 15.4824Z"/>
</g>
<defs>
<clipPath id="clip0">
<rect width="23.9833" height="23.9833" fill="white" transform="translate(0.111176 0.9646)"/>
</clipPath>
</defs>
</svg>
