<svg width="18" height="18" viewBox="0 0 18 18" fill="none" xmlns="http://www.w3.org/2000/svg">
<g clip-path="url(#clip0)">
<path d="M1.68751 2.25H16.3125C17.243 2.25 18 3.00696 18 3.93751V14.0625C18 14.9931 17.243 15.75 16.3125 15.75H1.68751C0.756962 15.75 0 14.9931 0 14.0625V3.93751C0 3.00696 0.756962 2.25 1.68751 2.25ZM1.68751 3.375C1.61109 3.375 1.53838 3.39085 1.47191 3.41854L9 9.94319L16.5281 3.41854C16.4617 3.39089 16.389 3.375 16.3125 3.375H1.68751ZM1.68751 14.625H16.3125C16.6228 14.625 16.875 14.3729 16.875 14.0625V4.60711L9.3686 11.1127C9.26257 11.2044 9.13128 11.25 9 11.25C8.86872 11.25 8.73744 11.2044 8.6314 11.1127L1.125 4.60711V14.0625C1.12503 14.3729 1.37715 14.625 1.68751 14.625Z" fill="#333333"/>
</g>
<defs>
<clipPath id="clip0">
<rect width="18" height="18" fill="white" transform="matrix(-1 0 0 1 18 0)"/>
</clipPath>
</defs>
</svg>
