<svg width="17" height="17" viewBox="0 0 17 17" fill="none" xmlns="http://www.w3.org/2000/svg">
<path d="M0.108042 8.16945C0.259914 7.9617 3.8785 3.08252 8.50008 3.08252C13.1217 3.08252 16.7404 7.9617 16.8921 8.16925C17.036 8.36634 17.036 8.63366 16.8921 8.83076C16.7404 9.03851 13.1217 13.9177 8.50008 13.9177C3.8785 13.9177 0.259914 9.03848 0.108042 8.83092C-0.0359936 8.63386 -0.0359936 8.36634 0.108042 8.16945ZM8.50008 12.7968C11.9044 12.7968 14.8528 9.5584 15.7257 8.49972C14.854 7.44011 11.9117 4.20339 8.50008 4.20339C5.09596 4.20339 2.14768 7.44124 1.2745 8.50048C2.14619 9.56006 5.08849 12.7968 8.50008 12.7968Z" fill="#7D7D7D"/>
<path d="M8.50014 5.13721C10.3543 5.13721 11.8628 6.64573 11.8628 8.49986C11.8628 10.354 10.3543 11.8625 8.50014 11.8625C6.64601 11.8625 5.13749 10.354 5.13749 8.49986C5.13749 6.64573 6.64601 5.13721 8.50014 5.13721ZM8.50014 10.7416C9.73629 10.7416 10.7419 9.73598 10.7419 8.49986C10.7419 7.26374 9.73626 6.25811 8.50014 6.25811C7.26402 6.25811 6.25839 7.26374 6.25839 8.49986C6.25839 9.73598 7.26399 10.7416 8.50014 10.7416Z" fill="#7D7D7D"/>
</svg>
