<svg width="34" height="34" viewBox="0 0 34 34" fill="none" xmlns="http://www.w3.org/2000/svg">
<path d="M17 0C9.8598 0 4.05078 5.80902 4.05078 12.9492C4.05078 17.5586 5.45295 19.4071 12.1909 28.2897C13.3605 29.8316 14.6863 31.5792 16.2031 33.6016C16.3913 33.8524 16.6865 34 17.0001 34C17.3136 34 17.6088 33.8523 17.7969 33.6014C19.3049 31.59 20.6249 29.849 21.7895 28.313C28.5437 19.4045 29.9492 17.5506 29.9492 12.9492C29.9492 5.80902 24.1402 0 17 0ZM20.202 27.1094C19.2455 28.3709 18.1844 29.7705 16.9998 31.3453C15.8071 29.7604 14.7399 28.3536 13.7781 27.0856C7.22394 18.4454 6.04297 16.8885 6.04297 12.9492C6.04297 6.90751 10.9583 1.99219 17 1.99219C23.0417 1.99219 27.957 6.90751 27.957 12.9492C27.957 16.8808 26.773 18.4425 20.202 27.1094Z" fill="black"/>
<path d="M16.9705 23.5742C15.8783 22.6645 14.8018 21.7724 13.7312 20.8744C12.7543 20.0645 11.8087 19.233 10.8259 18.4387C10.6529 18.3189 10.5133 18.1568 10.4204 17.9678C10.3274 17.7788 10.2841 17.5692 10.2945 17.3588C10.3219 15.2068 10.318 13.0372 10.2945 10.8774C10.2851 10.685 10.3185 10.4929 10.3921 10.315C10.4658 10.137 10.5779 9.97764 10.7204 9.8483C11.416 9.16944 12.0881 8.47884 12.7641 7.76476C12.8783 7.63515 13.0201 7.53275 13.179 7.46505C13.3378 7.39735 13.5098 7.36607 13.6823 7.37349C15.8979 7.38914 18.1154 7.38523 20.3251 7.37349C20.4882 7.36262 20.6517 7.38883 20.8032 7.45015C20.9548 7.51147 21.0906 7.60632 21.2004 7.72759C21.9291 8.51014 22.695 9.25943 23.4179 10.0459C23.5817 10.2278 23.6783 10.4606 23.6914 10.7052C23.7122 12.9824 23.7122 15.2603 23.6914 17.5388C23.6882 17.7843 23.5918 18.0193 23.4218 18.1961C21.3489 19.9569 19.2583 21.7039 17.1698 23.451C17.1053 23.4952 17.0388 23.5363 16.9705 23.5742ZM10.9627 10.3139C11.2128 10.4822 11.3945 10.6191 11.5899 10.7365C12.7621 11.4506 13.9344 12.1901 15.1457 12.8552C15.6654 13.1428 15.8705 13.4774 15.8119 14.0565C15.765 14.5377 15.8217 15.0346 15.8002 15.5159C15.7846 15.9072 15.9448 16.0363 16.316 16.0207C16.7614 16.0031 17.2108 16.0089 17.6563 16.0207C18.0255 16.0304 18.1838 15.872 18.1681 15.4944C18.1506 15.0483 18.2072 14.5964 18.1584 14.1543C18.0861 13.5008 18.3537 13.1291 18.9164 12.8161C20.1395 12.1392 21.3254 11.3919 22.5231 10.6641C22.695 10.5604 22.8513 10.4293 22.9744 10.3393C22.2144 9.5568 21.5051 8.83685 20.753 8.068C20.2606 8.90142 19.7351 9.67614 19.3306 10.5115C18.891 11.4212 18.1994 12.0101 17.3417 12.4679C17.2389 12.5362 17.1183 12.5726 16.9949 12.5726C16.8715 12.5726 16.7509 12.5362 16.6481 12.4679C15.8373 12.014 15.1418 11.478 14.7276 10.5956C14.3994 9.89525 13.9559 9.24769 13.5553 8.57861C13.4596 8.41623 13.3443 8.26755 13.2447 8.12278L10.9627 10.3139ZM20.3544 7.83715C19.3873 7.83715 18.5608 7.85084 17.7344 7.83715C17.3163 7.82737 17.203 8.01322 17.2108 8.39863C17.2245 9.38855 17.2108 10.3804 17.2108 11.3704C17.2108 11.5367 17.244 11.701 17.2655 11.9025C17.3553 11.8815 17.4435 11.8541 17.5293 11.8203C18.0365 11.5731 18.4509 11.1691 18.7113 10.668C19.2095 9.74461 19.7565 8.85837 20.3544 7.83715ZM13.8191 16.2163L10.9158 17.887L13.8992 20.3932L15.0714 18.6657C14.8503 18.511 14.62 18.3699 14.3818 18.2431C14.1858 18.1756 14.0208 18.0394 13.9174 17.8596C13.814 17.6798 13.779 17.4685 13.8191 17.2649C13.8445 16.9754 13.8191 16.6702 13.8191 16.2163ZM20.1121 20.3892L23.0975 17.891L20.2313 16.2456C20.2 16.8443 20.3134 17.3979 20.1102 17.7873C19.907 18.1766 19.3951 18.3742 18.9692 18.7107C19.3384 19.2526 19.7018 19.7886 20.1121 20.3892ZM16.5954 11.9397L16.7263 11.8438C16.736 11.6364 16.7536 11.431 16.7536 11.2236C16.7536 10.5056 16.7536 9.7857 16.7536 9.07162C16.7399 7.65912 16.9275 7.85671 15.5091 7.84497C14.9386 7.84497 14.37 7.84497 13.7507 7.84497C13.7779 7.95693 13.8132 8.06678 13.8562 8.17364C14.4248 9.15183 14.9601 10.1398 15.5833 11.0749C15.808 11.4291 16.2457 11.654 16.5915 11.9397H16.5954ZM21.0558 14.6786C21.0831 14.0799 20.5439 13.718 20.1317 13.9117C19.8665 14.068 19.5871 14.199 19.2974 14.303C18.6468 14.4653 18.641 14.4419 18.639 15.107C18.6302 15.2236 18.6302 15.3407 18.639 15.4572C18.7406 16.1126 18.5335 16.5861 17.8809 16.8267C17.7229 16.9018 17.5741 16.9951 17.4374 17.1045C17.1678 17.2884 17.1834 17.4821 17.4374 17.6484C17.75 17.844 18.0724 18.0279 18.3967 18.202C18.4822 18.2435 18.5788 18.2565 18.6722 18.2392C18.9895 18.1852 19.2741 18.0116 19.4674 17.7539C19.6607 17.4963 19.7481 17.1743 19.7116 16.8541C19.6159 16.0089 19.7898 15.3731 20.6592 15.0444C20.8506 14.9916 20.9757 14.7666 21.0519 14.6884L21.0558 14.6786ZM13.571 13.7767C13.3756 13.9723 13.0864 14.1367 12.9575 14.3851C12.8285 14.6336 12.9927 14.929 13.2818 15.0327C14.1923 15.3614 14.4384 16.0265 14.2899 16.9147C14.286 16.9531 14.286 16.9918 14.2899 17.0301C14.2997 17.9692 15.1789 18.4759 16.0034 18.0083C16.0874 17.9594 16.1714 17.9105 16.2535 17.8597C16.9197 17.4684 16.9529 17.2727 16.271 16.9362C15.5091 16.5724 15.2023 16.05 15.3489 15.2342C15.3626 15.1599 15.3489 15.0796 15.3489 15.0014C15.4055 14.5475 15.2453 14.3284 14.751 14.3069C14.5009 14.2971 14.2567 14.1112 14.0125 13.9958C13.8855 13.9469 13.7663 13.8823 13.571 13.7767ZM23.2538 10.7502C22.3492 11.3038 21.5481 11.7597 20.7901 12.2781C20.456 12.5051 20.5752 13.3091 20.9093 13.5674C21.5657 14.076 22.3179 13.8589 23.0388 13.8471C23.1131 13.8471 23.2342 13.6515 23.2342 13.5537C23.2557 12.6694 23.2479 11.7851 23.2479 10.7502H23.2538ZM10.7654 10.8187C10.7654 11.4819 10.7654 11.9807 10.7654 12.4816C10.7654 13.9899 10.91 14.1112 12.4085 13.8745C13.1255 13.7591 13.3854 13.4148 13.3658 12.7007C13.3665 12.5755 13.3309 12.4529 13.2633 12.3476C13.1956 12.2424 13.0989 12.1591 12.9848 12.1079C12.4827 11.8184 11.9943 11.5053 11.4941 11.2099C11.3066 11.0867 11.1014 10.9947 10.7595 10.8187H10.7654ZM20.3896 15.8094L23.2616 17.4469C23.2616 16.7621 23.2616 16.2417 23.2616 15.7213C23.2381 14.076 23.5058 14.3186 21.7826 14.3519C21.7478 14.3534 21.7141 14.3642 21.6849 14.3832C21.5325 14.6962 21.4524 15.0033 21.2629 15.2146C21.0734 15.4259 20.7608 15.5609 20.3837 15.8094H20.3896ZM13.6179 15.8094C13.3391 15.647 13.0703 15.468 12.8129 15.2733C12.6526 15.1526 12.5382 14.9808 12.4886 14.7862C12.4476 14.3832 12.2287 14.3206 11.9025 14.3382C10.6892 14.3988 10.7712 14.1993 10.7712 15.4748C10.7712 15.7076 10.7712 15.9404 10.7712 16.1733V17.3001L10.9256 17.3686L13.6179 15.8094ZM17.2284 22.5882L17.3847 22.6802C18.0939 22.0932 18.809 21.5063 19.5065 20.892C19.5498 20.8452 19.5809 20.7884 19.5973 20.7266C19.6136 20.6649 19.6147 20.6001 19.6002 20.5379C19.2974 20.0351 18.9633 19.5597 18.5941 18.9904C18.1271 19.4697 17.7422 19.8512 17.3769 20.2484C17.29 20.3517 17.2405 20.4812 17.2362 20.6162C17.2167 21.2677 17.2225 21.925 17.2225 22.5823L17.2284 22.5882ZM15.3547 19.0863C15.0812 19.4913 14.8155 19.9158 14.5127 20.3149C14.3036 20.5907 14.3173 20.7727 14.5967 20.9918C15.1711 21.4516 15.7201 21.9446 16.2867 22.416C16.414 22.5044 16.5486 22.5816 16.6892 22.6469C16.865 21.2168 16.9392 19.8923 15.3489 19.0804L15.3547 19.0863ZM18.215 18.7518C16.9119 17.7736 17.0428 17.8733 15.8412 18.6931L16.9705 19.7945C17.371 19.4502 17.7676 19.1176 18.2092 18.7459L18.215 18.7518ZM13.9969 12.7457L13.8347 12.8337C13.8933 13.0431 13.8836 13.3346 14.0301 13.4441C14.3876 13.7356 14.7862 14.0467 15.4192 13.7415C15.0206 13.2054 14.4775 13.0196 13.9969 12.7457ZM20.0848 12.687C19.5455 13.0059 18.9985 13.1937 18.6077 13.7043C19.1567 14.0682 19.5182 13.7532 19.8894 13.5361C20.2137 13.3502 20.1414 13.0626 20.0848 12.6948V12.687Z" fill="url(#paint0_linear)"/>
<defs>
<linearGradient id="paint0_linear" x1="10.2946" y1="15.4701" x2="23.707" y2="15.4701" gradientUnits="userSpaceOnUse">
<stop stop-color="#8A674A"/>
<stop offset="0.15" stop-color="#CEB57D"/>
<stop offset="0.24" stop-color="#F4E099"/>
<stop offset="0.41" stop-color="#F5F0B2"/>
<stop offset="0.49" stop-color="#DFD38E"/>
<stop offset="0.57" stop-color="#CCB96D"/>
<stop offset="0.61" stop-color="#C4AF60"/>
<stop offset="0.73" stop-color="#9C7D51"/>
<stop offset="0.91" stop-color="#F3DF72"/>
<stop offset="1" stop-color="#C4AF60"/>
</linearGradient>
</defs>
</svg>
