<svg width="19" height="19" viewBox="0 0 19 19" fill="none" xmlns="http://www.w3.org/2000/svg">
<path d="M13.6552 19C13.0419 19 12.4338 18.8916 11.8391 18.6755C9.21939 17.7239 6.78771 16.1739 4.8069 14.1931C2.82608 12.2123 1.27609 9.78059 0.324455 7.16085C0.0186491 6.31895 -0.0715973 5.44988 0.0563135 4.5777C0.176135 3.76073 0.492591 2.96763 0.971504 2.2841C1.45253 1.59757 2.09383 1.02655 2.82604 0.6328C3.60687 0.212925 4.45912 0 5.35921 0C5.63915 0 5.8811 0.195596 5.93976 0.469303L6.87169 4.81831C6.91388 5.01524 6.85336 5.22015 6.71098 5.36257L5.11857 6.95494C6.62077 9.9416 9.05831 12.3791 12.045 13.8813L13.6373 12.2889C13.7798 12.1466 13.9847 12.0861 14.1816 12.1282L18.5306 13.0601C18.8044 13.1188 18.9999 13.3608 18.9999 13.6407C18.9999 14.5408 18.787 15.3931 18.3671 16.1739C17.9733 16.9061 17.4023 17.5474 16.7158 18.0284C16.0323 18.5074 15.2392 18.8238 14.4222 18.9436C14.1662 18.9812 13.9102 19 13.6552 19ZM4.88482 1.21343C3.69756 1.34449 2.64377 1.96679 1.94399 2.96555C1.15708 4.08862 0.973582 5.46996 1.44055 6.75545C3.27011 11.7919 7.20804 15.7299 12.2445 17.5594C13.53 18.0264 14.9113 17.8429 16.0344 17.056C17.0332 16.3562 17.6555 15.3024 17.7866 14.1152L14.2487 13.357L12.5856 15.0201C12.4087 15.197 12.1398 15.2441 11.9133 15.1376C8.38105 13.4782 5.52182 10.6189 3.86235 7.08664C3.75597 6.86017 3.80294 6.59128 3.97991 6.41435L5.64294 4.75133L4.88482 1.21343Z" fill="black"/>
</svg>
