<svg width="14" height="21" viewBox="0 0 14 21" fill="none" xmlns="http://www.w3.org/2000/svg">
<path d="M7 0C3.14027 0 0 3.14027 0 7C0 8.15869 0.289693 9.30754 0.840408 10.3265L6.6172 20.7744C6.69411 20.9137 6.84065 21 7 21C7.15935 21 7.30589 20.9137 7.3828 20.7744L13.1617 10.3231C13.7103 9.30754 14 8.15865 14 6.99996C14 3.14027 10.8597 0 7 0ZM7 10.5C5.07014 10.5 3.50002 8.92986 3.50002 7C3.50002 5.07014 5.07014 3.50002 7 3.50002C8.92986 3.50002 10.5 5.07014 10.5 7C10.5 8.92986 8.92986 10.5 7 10.5Z" fill="#B8B7B7"/>
</svg>
