<svg width="24" height="24" viewBox="0 0 24 24" fill="none" xmlns="http://www.w3.org/2000/svg">
<g clip-path="url(#clip0)">
<path d="M11.9941 1.00024C7.02008 1.00024 2.99414 5.0255 2.99414 10.0002C2.99414 11.5788 3.40585 13.1206 4.18767 14.4805L3.02806 18.0815C2.94717 18.3326 3.01364 18.6078 3.20013 18.7943C3.38484 18.979 3.65936 19.0479 3.91287 18.9663L7.51392 17.8067C8.87375 18.5885 10.4155 19.0002 11.9941 19.0002C16.9682 19.0002 20.9941 14.975 20.9941 10.0002C20.9941 5.02618 16.9689 1.00024 11.9941 1.00024ZM11.9941 17.594C10.5683 17.594 9.17834 17.1962 7.97466 16.4435C7.80148 16.3352 7.58643 16.306 7.38634 16.3704L4.78683 17.2076L5.62399 14.608C5.68744 14.4108 5.66066 14.1955 5.5508 14.0197C4.79823 12.816 4.40039 11.4261 4.40039 10.0002C4.40039 5.81308 7.80698 2.40649 11.9941 2.40649C16.1813 2.40649 19.5879 5.81308 19.5879 10.0002C19.5879 14.1874 16.1813 17.594 11.9941 17.594ZM12.873 10.0002C12.873 10.4856 12.4796 10.8792 11.9941 10.8792C11.5087 10.8792 11.1152 10.4856 11.1152 10.0002C11.1152 9.51479 11.5087 9.12134 11.9941 9.12134C12.4796 9.12134 12.873 9.51479 12.873 10.0002ZM16.3887 10.0002C16.3887 10.4856 15.9952 10.8792 15.5098 10.8792C15.0243 10.8792 14.6309 10.4856 14.6309 10.0002C14.6309 9.51479 15.0243 9.12134 15.5098 9.12134C15.9952 9.12134 16.3887 9.51479 16.3887 10.0002ZM9.35742 10.0002C9.35742 10.4856 8.96397 10.8792 8.47852 10.8792C7.99319 10.8792 7.59961 10.4856 7.59961 10.0002C7.59961 9.51479 7.99319 9.12134 8.47852 9.12134C8.96397 9.12134 9.35742 9.51479 9.35742 10.0002Z" fill="#333333"/>
</g>
<defs>
<clipPath id="clip0">
<rect width="18" height="18" fill="white" transform="translate(2.99414 1.00024)"/>
</clipPath>
</defs>
</svg>
