<svg width="13" height="13" viewBox="0 0 13 13" fill="none" xmlns="http://www.w3.org/2000/svg">
<path d="M3.65625 6.32227H2.84375C2.63341 6.32227 2.46289 6.49279 2.46289 6.70312C2.46289 6.91346 2.63341 7.08398 2.84375 7.08398H3.65625C3.86659 7.08398 4.03711 6.91346 4.03711 6.70312C4.03711 6.49279 3.86659 6.32227 3.65625 6.32227Z" fill="#333333"/>
<path d="M3.65625 7.94727H2.84375C2.63341 7.94727 2.46289 8.11779 2.46289 8.32812C2.46289 8.53846 2.63341 8.70898 2.84375 8.70898H3.65625C3.86659 8.70898 4.03711 8.53846 4.03711 8.32812C4.03711 8.11779 3.86659 7.94727 3.65625 7.94727Z" fill="#333333"/>
<path d="M3.65625 9.57227H2.84375C2.63341 9.57227 2.46289 9.74279 2.46289 9.95312C2.46289 10.1635 2.63341 10.334 2.84375 10.334H3.65625C3.86659 10.334 4.03711 10.1635 4.03711 9.95312C4.03711 9.74279 3.86659 9.57227 3.65625 9.57227Z" fill="#333333"/>
<path d="M6.90625 6.32227H6.09375C5.88341 6.32227 5.71289 6.49279 5.71289 6.70312C5.71289 6.91346 5.88341 7.08398 6.09375 7.08398H6.90625C7.11659 7.08398 7.28711 6.91346 7.28711 6.70312C7.28711 6.49279 7.11659 6.32227 6.90625 6.32227Z" fill="#333333"/>
<path d="M6.90625 7.94727H6.09375C5.88341 7.94727 5.71289 8.11779 5.71289 8.32812C5.71289 8.53846 5.88341 8.70898 6.09375 8.70898H6.90625C7.11659 8.70898 7.28711 8.53846 7.28711 8.32812C7.28711 8.11779 7.11659 7.94727 6.90625 7.94727Z" fill="#333333"/>
<path d="M6.90625 9.57227H6.09375C5.88341 9.57227 5.71289 9.74279 5.71289 9.95312C5.71289 10.1635 5.88341 10.334 6.09375 10.334H6.90625C7.11659 10.334 7.28711 10.1635 7.28711 9.95312C7.28711 9.74279 7.11659 9.57227 6.90625 9.57227Z" fill="#333333"/>
<path d="M10.1562 6.32227H9.34375C9.13341 6.32227 8.96289 6.49279 8.96289 6.70312C8.96289 6.91346 9.13341 7.08398 9.34375 7.08398H10.1562C10.3666 7.08398 10.5371 6.91346 10.5371 6.70312C10.5371 6.49279 10.3666 6.32227 10.1562 6.32227Z" fill="#333333"/>
<path d="M10.1562 7.94727H9.34375C9.13341 7.94727 8.96289 8.11779 8.96289 8.32812C8.96289 8.53846 9.13341 8.70898 9.34375 8.70898H10.1562C10.3666 8.70898 10.5371 8.53846 10.5371 8.32812C10.5371 8.11779 10.3666 7.94727 10.1562 7.94727Z" fill="#333333"/>
<path d="M10.1562 9.57227H9.34375C9.13341 9.57227 8.96289 9.74279 8.96289 9.95312C8.96289 10.1635 9.13341 10.334 9.34375 10.334H10.1562C10.3666 10.334 10.5371 10.1635 10.5371 9.95312C10.5371 9.74279 10.3666 9.57227 10.1562 9.57227Z" fill="#333333"/>
<path d="M11.8574 1.65039H10.9434V1.01562C10.9434 0.805289 10.7728 0.634766 10.5625 0.634766C10.3522 0.634766 10.1816 0.805289 10.1816 1.01562V1.65039H6.88086V1.01562C6.88086 0.805289 6.71034 0.634766 6.5 0.634766C6.28966 0.634766 6.11914 0.805289 6.11914 1.01562V1.65039H2.81836V1.01562C2.81836 0.805289 2.64784 0.634766 2.4375 0.634766C2.22716 0.634766 2.05664 0.805289 2.05664 1.01562V1.65039H1.14258C0.512561 1.65039 0 2.16295 0 2.79297V11.2227C0 11.8527 0.512561 12.3652 1.14258 12.3652H11.8574C12.4874 12.3652 13 11.8527 13 11.2227C13 10.9768 13 3.00688 13 2.79297C13 2.16295 12.4874 1.65039 11.8574 1.65039ZM0.761719 2.79297C0.761719 2.58296 0.932572 2.41211 1.14258 2.41211H2.05664V3.04688C2.05664 3.25721 2.22716 3.42773 2.4375 3.42773C2.64784 3.42773 2.81836 3.25721 2.81836 3.04688V2.41211H6.11914V3.04688C6.11914 3.25721 6.28966 3.42773 6.5 3.42773C6.71034 3.42773 6.88086 3.25721 6.88086 3.04688V2.41211H10.1816V3.04688C10.1816 3.25721 10.3522 3.42773 10.5625 3.42773C10.7728 3.42773 10.9434 3.25721 10.9434 3.04688V2.41211H11.8574C12.0674 2.41211 12.2383 2.58296 12.2383 2.79297V4.29102H0.761719V2.79297ZM11.8574 11.6035H1.14258C0.932572 11.6035 0.761719 11.4327 0.761719 11.2227V5.05273H12.2383V11.2227C12.2383 11.4327 12.0674 11.6035 11.8574 11.6035Z" fill="#333333"/>
</svg>
