<svg width="58" height="58" viewBox="0 0 58 58" fill="none" xmlns="http://www.w3.org/2000/svg">
<path d="M29 0C23.2643 0 17.6575 1.70082 12.8885 4.88738C8.11945 8.07394 4.40245 12.6031 2.20751 17.9022C0.0125652 23.2012 -0.561731 29.0322 0.55724 34.6576C1.67621 40.2831 4.43819 45.4504 8.49391 49.5061C12.5496 53.5618 17.7169 56.3238 23.3424 57.4428C28.9678 58.5617 34.7988 57.9874 40.0978 55.7925C45.3969 53.5976 49.9261 49.8806 53.1126 45.1115C56.2992 40.3425 58 34.7356 58 29C58 21.3087 54.9447 13.9325 49.5061 8.4939C44.0675 3.05535 36.6913 0 29 0V0ZM29 57.42C23.3791 57.42 17.8843 55.7532 13.2107 52.6304C8.53706 49.5075 4.8944 45.0689 2.74336 39.8759C0.592314 34.6828 0.0295033 28.9685 1.1261 23.4555C2.22269 17.9426 4.92943 12.8786 8.90404 8.90402C12.8786 4.92942 17.9426 2.22267 23.4555 1.12608C28.9685 0.0294903 34.6828 0.592301 39.8759 2.74334C45.0689 4.89438 49.5075 8.53705 52.6304 13.2107C55.7532 17.8843 57.42 23.379 57.42 29C57.42 36.5374 54.4258 43.7662 49.096 49.096C43.7662 54.4257 36.5375 57.42 29 57.42Z" fill="url(#paint0_linear)"/>
<defs>
<linearGradient id="paint0_linear" x1="1.30461e-05" y1="29" x2="58" y2="29" gradientUnits="userSpaceOnUse">
<stop stop-color="#AA6C31"/>
<stop offset="0.15" stop-color="#DFBC79"/>
<stop offset="0.24" stop-color="#FCE79F"/>
<stop offset="0.41" stop-color="#FAF3BB"/>
<stop offset="0.44" stop-color="#F5EAA8"/>
<stop offset="0.52" stop-color="#E6D072"/>
<stop offset="0.58" stop-color="#DCC051"/>
<stop offset="0.61" stop-color="#D9BA44"/>
<stop offset="0.73" stop-color="#B98737"/>
<stop offset="0.91" stop-color="#FCE360"/>
<stop offset="1" stop-color="#D9BA44"/>
</linearGradient>
</defs>
</svg>
