<svg width="20" height="18" viewBox="0 0 20 18" fill="none" xmlns="http://www.w3.org/2000/svg">
<path d="M17.1561 3.0177C16.7426 2.60404 16.2517 2.27589 15.7114 2.05201C15.171 1.82812 14.5919 1.71289 14.007 1.71289C13.4221 1.71289 12.843 1.82812 12.3027 2.05201C11.7624 2.27589 11.2714 2.60404 10.858 3.0177L9.99988 3.8758L9.14178 3.0177C8.3066 2.18252 7.17385 1.71332 5.99273 1.71332C4.81161 1.71332 3.67886 2.18252 2.84369 3.0177C2.00851 3.85288 1.53931 4.98563 1.53931 6.16675C1.53931 7.34787 2.00851 8.48062 2.84369 9.3158L3.70178 10.1739L9.99988 16.472L16.298 10.1739L17.1561 9.3158C17.5697 8.90233 17.8979 8.41141 18.1218 7.87108C18.3456 7.33076 18.4609 6.75162 18.4609 6.16675C18.4609 5.58188 18.3456 5.00274 18.1218 4.46241C17.8979 3.92209 17.5697 3.43117 17.1561 3.0177V3.0177Z" stroke="#333333" stroke-width="1.5" stroke-linecap="round" stroke-linejoin="round"/>
</svg>
