<svg width="14" height="14" viewBox="0 0 14 14" fill="none" xmlns="http://www.w3.org/2000/svg">
<path d="M7 0C3.13078 0 0 3.13105 0 7C0 10.8692 3.13105 14 7 14C10.8692 14 14 10.8689 14 7C14 3.13078 10.8689 0 7 0ZM7 12.9062C3.73535 12.9062 1.09375 10.2644 1.09375 7C1.09375 3.73535 3.73557 1.09375 7 1.09375C10.2647 1.09375 12.9062 3.73557 12.9062 7C12.9062 10.2647 10.2644 12.9062 7 12.9062Z" fill="#CEB790"/>
<path d="M7 5.8606C6.69796 5.8606 6.45312 6.10543 6.45312 6.40747V9.92916C6.45312 10.2312 6.69796 10.476 7 10.476C7.30204 10.476 7.54688 10.2312 7.54688 9.92914V6.40747C7.54688 6.10543 7.30204 5.8606 7 5.8606Z" fill="#CEB790"/>
<path d="M7 5.19092C7.40774 5.19092 7.73828 4.86038 7.73828 4.45264C7.73828 4.04489 7.40774 3.71436 7 3.71436C6.59226 3.71436 6.26172 4.04489 6.26172 4.45264C6.26172 4.86038 6.59226 5.19092 7 5.19092Z" fill="#CEB790"/>
</svg>
