<svg width="22" height="13" viewBox="0 0 22 13" fill="none" xmlns="http://www.w3.org/2000/svg">
<path d="M21.5391 1.10938C21.6562 0.640625 21.5391 0.25 20.8359 0.25H18.5312C17.9453 0.25 17.6719 0.5625 17.5156 0.914062C17.5156 0.914062 16.3438 3.76562 14.7031 5.64062C14.1562 6.14844 13.9219 6.34375 13.6094 6.34375C13.4922 6.34375 13.2578 6.14844 13.2578 5.67969V1.10938C13.2578 0.523438 13.1016 0.25 12.5938 0.25H9C8.60938 0.25 8.41406 0.523438 8.41406 0.796875C8.41406 1.34375 9.23438 1.46094 9.3125 3.02344V6.42188C9.3125 7.16406 9.19531 7.32031 8.88281 7.32031C8.10156 7.32031 6.22656 4.42969 5.09375 1.14844C4.85938 0.523438 4.625 0.25 4.03906 0.25H1.73438C1.10938 0.25 0.953125 0.5625 0.953125 0.914062C0.953125 1.53906 1.73438 4.54688 4.58594 8.57031C6.5 11.3047 9.19531 12.75 11.6172 12.75C13.0625 12.75 13.2578 12.4375 13.2578 11.8906C13.2578 9.27344 13.1406 9 13.8438 9C14.1953 9 14.7812 9.19531 16.1484 10.5234C17.7109 12.0859 17.9844 12.75 18.8438 12.75H21.1484C21.8125 12.75 22.125 12.4375 21.9297 11.7734C21.5 10.4453 18.5703 7.63281 18.4141 7.4375C18.0625 7.00781 18.1797 6.8125 18.4141 6.42188C18.4141 6.42188 21.2266 2.4375 21.5391 1.10938Z" fill="white"/>
</svg>
