<svg width="16" height="16" viewBox="0 0 16 16" fill="none" xmlns="http://www.w3.org/2000/svg">
<path d="M15.562 7.05215C15.5101 6.72711 15.2046 6.50568 14.8795 6.55754C14.5545 6.60939 14.3331 6.91495 14.3849 7.23998C14.3855 7.24355 14.3861 7.24707 14.3867 7.2506C14.9936 10.8233 12.5893 14.2116 9.01662 14.8185C5.44389 15.4254 2.05564 13.0211 1.44872 9.44841C0.841807 5.87568 3.24611 2.48744 6.8188 1.88053C9.01595 1.5073 11.2524 2.27478 12.7573 3.91851L10.1172 4.79815C9.80484 4.90207 9.63593 5.23947 9.73982 5.5518C9.73985 5.55187 9.73989 5.55197 9.73992 5.55204C9.84385 5.86437 10.1812 6.03328 10.4936 5.92939C10.4937 5.92936 10.4937 5.92932 10.4938 5.92932L14.0697 4.73739C14.3131 4.6563 14.4774 4.42845 14.4773 4.17182V0.595984C14.4773 0.266826 14.2105 0 13.8813 0C13.5522 0 13.2853 0.266826 13.2853 0.595984V2.77305C10.2161 -0.146141 5.36154 -0.0245139 2.44234 3.0447C-0.476854 6.11391 -0.355261 10.9685 2.71399 13.8877C5.78324 16.8069 10.6378 16.6853 13.557 13.6161C15.2216 11.8659 15.9645 9.43378 15.562 7.05215Z" fill="black"/>
</svg>
