<svg width="237" height="78" viewBox="0 0 237 78" fill="none" xmlns="http://www.w3.org/2000/svg">
<path d="M203 39.5665L195.985 33L196.04 39.1677H0V39.8057H196.04L196.124 46L203 39.5665Z" fill="url(#paint0_linear)"/>
<g clip-path="url(#clip0)">
<path d="M198 0C190.287 0 182.746 2.28731 176.333 6.57269C169.919 10.8581 164.921 16.949 161.969 24.0753C159.017 31.2017 158.245 39.0433 159.749 46.6085C161.254 54.1738 164.969 61.1229 170.423 66.5772C175.877 72.0314 182.826 75.7458 190.391 77.2506C197.957 78.7555 205.798 77.9831 212.925 75.0313C220.051 72.0795 226.142 67.0808 230.427 60.6672C234.713 54.2537 237 46.7135 237 39C237 28.6566 232.891 18.7368 225.577 11.4228C218.263 4.10892 208.343 0 198 0V0ZM198 77.22C190.441 77.22 183.051 74.9784 176.766 70.7788C170.481 66.5791 165.582 60.61 162.689 53.6262C159.797 46.6424 159.04 38.9576 160.514 31.5436C161.989 24.1297 165.629 17.3195 170.974 11.9744C176.32 6.62922 183.13 2.98911 190.544 1.51439C197.958 0.0396594 205.642 0.796543 212.626 3.68932C219.61 6.58211 225.579 11.4809 229.779 17.7661C233.978 24.0514 236.22 31.4408 236.22 39C236.22 49.1366 232.193 58.858 225.026 66.0256C217.858 73.1933 208.137 77.22 198 77.22Z" fill="url(#paint1_linear)"/>
<path d="M221.743 26.6763C221.703 25.8235 221.374 25.0088 220.808 24.3642C218.214 21.7283 215.549 19.185 213.049 16.5029C212.675 16.0914 212.211 15.7694 211.693 15.5611C211.175 15.3528 210.615 15.2637 210.057 15.3006C202.391 15.3006 194.726 15.3006 187.06 15.3006C186.454 15.2675 185.85 15.3711 185.291 15.6034C184.732 15.8357 184.234 16.1908 183.834 16.6416C181.497 19.0694 179.16 21.4509 176.823 23.763C176.331 24.2078 175.941 24.7515 175.679 25.3577C175.417 25.9638 175.289 26.6184 175.304 27.2775C175.304 34.6532 175.304 42.052 175.304 49.4278C175.264 50.1469 175.411 50.8641 175.73 51.5115C176.049 52.1589 176.53 52.715 177.127 53.1272C180.516 55.8324 183.811 58.6532 187.177 61.4278C190.542 64.2023 194.609 67.5549 198.371 70.6763C198.629 70.5439 198.879 70.3972 199.119 70.237C206.411 64.2409 213.617 58.2524 220.738 52.2717C221.33 51.6432 221.663 50.8186 221.673 49.9595C221.743 42.237 221.743 34.4451 221.743 26.6763ZM220.2 49.6821C220.183 50.4691 219.866 51.2207 219.312 51.7861C212.605 57.4278 205.827 63 199.073 68.5954C198.848 68.7485 198.614 68.8875 198.371 69.0116C194.842 66.0983 191.36 63.2543 187.901 60.3642C184.442 57.474 181.661 55.1156 178.552 52.5954C177.996 52.2064 177.547 51.6845 177.249 51.0782C176.951 50.4718 176.812 49.8007 176.846 49.1272C176.846 42.2216 176.846 35.2852 176.846 28.3179C176.823 27.7047 176.934 27.0937 177.172 26.527C177.411 25.9602 177.77 25.4512 178.225 25.0347C180.562 22.8613 182.689 20.6416 184.839 18.3757C185.192 17.9557 185.636 17.6193 186.137 17.3913C186.639 17.1632 187.186 17.0492 187.737 17.0578C194.936 17.0578 202.111 17.0578 209.286 17.0578C209.813 17.0253 210.341 17.1102 210.83 17.3063C211.319 17.5024 211.758 17.8046 212.114 18.1908C214.474 20.6879 217.069 23.0925 219.406 25.5896C219.936 26.179 220.249 26.9288 220.294 27.7168C220.294 35.0077 220.263 42.3295 220.2 49.6821Z" fill="url(#paint2_linear)" stroke="white" stroke-width="0.25" stroke-miterlimit="10"/>
</g>
<defs>
<linearGradient id="paint0_linear" x1="0" y1="39.4867" x2="203" y2="39.4867" gradientUnits="userSpaceOnUse">
<stop stop-color="#AA6C31"/>
<stop offset="0.15" stop-color="#DFBC79"/>
<stop offset="0.24" stop-color="#FCE79F"/>
<stop offset="0.41" stop-color="#FAF3BB"/>
<stop offset="0.44" stop-color="#F5EAA8"/>
<stop offset="0.52" stop-color="#E6D072"/>
<stop offset="0.58" stop-color="#DCC051"/>
<stop offset="0.61" stop-color="#D9BA44"/>
<stop offset="0.73" stop-color="#B98737"/>
<stop offset="0.91" stop-color="#FCE360"/>
<stop offset="1" stop-color="#D9BA44"/>
</linearGradient>
<linearGradient id="paint1_linear" x1="159" y1="39" x2="237" y2="39" gradientUnits="userSpaceOnUse">
<stop stop-color="#AA6C31"/>
<stop offset="0.15" stop-color="#DFBC79"/>
<stop offset="0.24" stop-color="#FCE79F"/>
<stop offset="0.41" stop-color="#FAF3BB"/>
<stop offset="0.44" stop-color="#F5EAA8"/>
<stop offset="0.52" stop-color="#E6D072"/>
<stop offset="0.58" stop-color="#DCC051"/>
<stop offset="0.61" stop-color="#D9BA44"/>
<stop offset="0.73" stop-color="#B98737"/>
<stop offset="0.91" stop-color="#FCE360"/>
<stop offset="1" stop-color="#D9BA44"/>
</linearGradient>
<linearGradient id="paint2_linear" x1="175.28" y1="42.9769" x2="221.696" y2="42.9769" gradientUnits="userSpaceOnUse">
<stop stop-color="#AA6C31"/>
<stop offset="0.15" stop-color="#DFBC79"/>
<stop offset="0.24" stop-color="#FCE79F"/>
<stop offset="0.41" stop-color="#FAF3BB"/>
<stop offset="0.44" stop-color="#F5EAA8"/>
<stop offset="0.52" stop-color="#E6D072"/>
<stop offset="0.58" stop-color="#DCC051"/>
<stop offset="0.61" stop-color="#D9BA44"/>
<stop offset="0.73" stop-color="#B98737"/>
<stop offset="0.91" stop-color="#FCE360"/>
<stop offset="1" stop-color="#D9BA44"/>
</linearGradient>
<clipPath id="clip0">
<rect width="78" height="78" fill="white" transform="translate(159)"/>
</clipPath>
</defs>
</svg>
