<svg width="24" height="20" viewBox="0 0 24 20" fill="none" xmlns="http://www.w3.org/2000/svg">
<path d="M20.9867 2.5714C20.4763 2.06076 19.8703 1.65568 19.2033 1.37931C18.5363 1.10294 17.8214 0.960693 17.0994 0.960693C16.3774 0.960693 15.6625 1.10294 14.9955 1.37931C14.3285 1.65568 13.7225 2.06076 13.2121 2.5714L12.1528 3.63066L11.0936 2.5714C10.0626 1.54042 8.66429 0.961228 7.20627 0.961228C5.74825 0.961228 4.34995 1.54042 3.31897 2.5714C2.288 3.60238 1.7088 5.00068 1.7088 6.4587C1.7088 7.91672 2.288 9.31502 3.31897 10.346L4.37824 11.4053L12.1528 19.1799L19.9274 11.4053L20.9867 10.346C21.4973 9.8356 21.9024 9.22959 22.1788 8.56259C22.4552 7.8956 22.5974 7.18068 22.5974 6.4587C22.5974 5.73671 22.4552 5.0218 22.1788 4.35481C21.9024 3.68781 21.4973 3.0818 20.9867 2.5714V2.5714Z" stroke="#333333" stroke-width="1.5" stroke-linecap="round" stroke-linejoin="round"/>
</svg>
