<svg width="18" height="18" viewBox="0 0 18 18" fill="none" xmlns="http://www.w3.org/2000/svg">
<path d="M6.06825 9.09224L3.33786e-06 12.9285V5.09399L6.06825 9.09224Z" fill="#B8B7B7"/>
<path d="M18 5.09399V12.9285L11.9317 9.09224L18 5.09399Z" fill="#B8B7B7"/>
<path d="M1.125 2.8125H16.875C17.4364 2.8125 17.8819 3.231 17.9662 3.76988L9 9.67725L0.0337486 3.76988C0.118124 3.231 0.563623 2.8125 1.125 2.8125Z" fill="#B8B7B7"/>
<path d="M7.09874 9.77163L8.69061 10.8201C8.78511 10.882 8.89199 10.9124 8.99999 10.9124C9.10799 10.9124 9.21486 10.882 9.30936 10.8201L10.9012 9.77051L17.964 14.2379C17.8774 14.7723 17.4341 15.1874 16.875 15.1874H1.12499C0.565865 15.1874 0.122614 14.7723 0.0359879 14.2379L7.09874 9.77163Z" fill="#B8B7B7"/>
</svg>
