<?xml version="1.0" encoding="utf-8"?>
<!-- Generator: Adobe Illustrator 24.3.0, SVG Export Plug-In . SVG Version: 6.00 Build 0)  -->
<svg version="1.1" id="Слой_1" xmlns="http://www.w3.org/2000/svg" xmlns:xlink="http://www.w3.org/1999/xlink" x="0px" y="0px"
	 viewBox="0 0 34 34" style="enable-background:new 0 0 34 34;" xml:space="preserve">
<style type="text/css">
	.st0{fill:#FFFFFF;stroke:#000000;stroke-miterlimit:10;}
	.st1{fill:url(#SVGID_1_);}
</style>
<g id="Слой_2">
	<path class="st0" d="M16.9,0.2c-6.6,0-12,5.6-12,12.5c0,4.5,1.3,6.3,7.5,14.8c1.1,1.5,2.3,3.2,3.7,5.1c0.2,0.3,0.5,0.4,0.7,0.4
		s0.6-0.1,0.7-0.4c1.4-1.9,2.6-3.7,3.7-5.1c6.3-8.6,7.6-10.4,7.6-14.9C28.9,5.9,23.5,0.2,16.9,0.2z"/>
</g>
<path d="M16.9,0C9.8,0,4,5.8,4,12.9c0,4.6,1.4,6.5,8.1,15.3c1.2,1.5,2.5,3.3,4,5.3c0.2,0.3,0.5,0.4,0.8,0.4s0.6-0.1,0.8-0.4
	c1.5-2,2.8-3.8,4-5.3c6.8-8.9,8.2-10.8,8.2-15.4C29.8,5.8,24,0,16.9,0z M20.1,27.1c-1,1.3-2,2.7-3.2,4.2c-1.2-1.6-2.3-3-3.2-4.3
	c-6.6-8.6-7.8-10.1-7.8-14.1c0-6,5-10.9,11-10.9s11,4.9,11,11C27.9,16.9,26.7,18.4,20.1,27.1z"/>
<linearGradient id="SVGID_1_" gradientUnits="userSpaceOnUse" x1="8.1" y1="1059.25" x2="25.7641" y2="1059.25" gradientTransform="matrix(1 0 0 1 0 -1044)">
	<stop  offset="0" style="stop-color:#8A674A"/>
	<stop  offset="0.15" style="stop-color:#CEB57D"/>
	<stop  offset="0.24" style="stop-color:#F4E099"/>
	<stop  offset="0.41" style="stop-color:#F5F0B2"/>
	<stop  offset="0.49" style="stop-color:#DFD38E"/>
	<stop  offset="0.57" style="stop-color:#CCB96D"/>
	<stop  offset="0.61" style="stop-color:#C4AF60"/>
	<stop  offset="0.73" style="stop-color:#9C7D51"/>
	<stop  offset="0.91" style="stop-color:#F3DF72"/>
	<stop  offset="1" style="stop-color:#C4AF60"/>
</linearGradient>
<path class="st1" d="M16.9,25.8c-1.4-1.2-2.9-2.4-4.3-3.6c-1.3-1.1-2.5-2.2-3.8-3.2c-0.2-0.2-0.4-0.4-0.5-0.6s-0.2-0.5-0.2-0.8
	c0-2.8,0-5.7,0-8.5c0-0.3,0-0.5,0.1-0.7S8.4,8,8.6,7.8c0.9-0.9,1.8-1.8,2.7-2.7c0.2-0.2,0.3-0.3,0.5-0.4s0.4-0.1,0.7-0.1
	c2.9,0,5.8,0,8.7,0c0.2,0,0.4,0,0.6,0.1s0.4,0.2,0.5,0.4c1,1,2,2,2.9,3.1c0.2,0.2,0.3,0.5,0.4,0.9c0,3,0,6,0,9
	c0,0.3-0.1,0.6-0.4,0.9c-2.7,2.3-5.5,4.6-8.2,6.9C17.1,25.7,17,25.8,16.9,25.8z M9,8.4C9.3,8.6,9.6,8.8,9.8,9
	c1.5,0.9,3.1,1.9,4.7,2.8c0.7,0.4,1,0.8,0.9,1.6c-0.1,0.6,0,1.3,0,1.9c0,0.5,0.2,0.7,0.7,0.7c0.6,0,1.2,0,1.8,0
	c0.5,0,0.7-0.2,0.7-0.7c0-0.6,0.1-1.2,0-1.8c-0.1-0.9,0.3-1.4,1-1.8c1.6-0.9,3.2-1.9,4.7-2.8c0.2-0.1,0.4-0.3,0.6-0.4
	c-1-1-1.9-2-2.9-3c-0.6,1.1-1.3,2.1-1.9,3.2c-0.6,1.2-1.5,2-2.6,2.6c-0.1,0.1-0.3,0.1-0.5,0.1s-0.3,0-0.5-0.1
	c-1.1-0.6-2-1.3-2.5-2.5c-0.4-0.9-1-1.8-1.5-2.7c-0.1-0.2-0.3-0.4-0.4-0.6L9,8.4z M21.3,5.1c-1.3,0-2.4,0-3.5,0
	c-0.6,0-0.7,0.2-0.7,0.7c0,1.3,0,2.6,0,3.9c0,0.2,0,0.4,0.1,0.7c0.1,0,0.2-0.1,0.3-0.1c0.7-0.3,1.2-0.9,1.6-1.5
	C19.8,7.6,20.6,6.4,21.3,5.1z M12.7,16.1l-3.8,2.2l3.9,3.3l1.5-2.3c-0.3-0.2-0.6-0.4-0.9-0.6c-0.3-0.1-0.5-0.3-0.6-0.5
	s-0.2-0.5-0.1-0.8C12.8,17.1,12.7,16.7,12.7,16.1z M21,21.6l3.9-3.3l-3.8-2.2c0,0.8,0.1,1.5-0.2,2c-0.3,0.5-0.9,0.8-1.5,1.2
	C20,20.1,20.5,20.8,21,21.6z M16.4,10.5l0.2-0.1c0-0.3,0-0.5,0-0.8c0-0.9,0-1.9,0-2.8c0-1.9,0.2-1.6-1.6-1.6c-0.8,0-1.5,0-2.3,0
	c0,0.1,0.1,0.3,0.1,0.4c0.7,1.3,1.5,2.6,2.3,3.8C15.4,9.8,15.9,10.1,16.4,10.5L16.4,10.5z M22.3,14.1c0-0.8-0.7-1.3-1.2-1
	c-0.3,0.2-0.7,0.4-1.1,0.5c-0.9,0.2-0.9,0.2-0.9,1.1c0,0.2,0,0.3,0,0.5c0.1,0.9-0.1,1.5-1,1.8c-0.2,0.1-0.4,0.2-0.6,0.4
	c-0.4,0.2-0.3,0.5,0,0.7c0.4,0.3,0.8,0.5,1.3,0.7c0.1,0.1,0.2,0.1,0.4,0c0.4-0.1,0.8-0.3,1-0.6c0.3-0.3,0.4-0.8,0.3-1.2
	c-0.1-1.1,0.1-2,1.2-2.4C22,14.5,22.2,14.2,22.3,14.1L22.3,14.1z M12.4,12.9c-0.3,0.3-0.6,0.5-0.8,0.8s0,0.7,0.4,0.9
	c1.2,0.4,1.5,1.3,1.3,2.5c0,0.1,0,0.1,0,0.2c0,1.2,1.2,1.9,2.3,1.3c0.1-0.1,0.2-0.1,0.3-0.2c0.9-0.5,0.9-0.8,0-1.2
	c-1-0.5-1.4-1.2-1.2-2.2c0-0.1,0-0.2,0-0.3c0.1-0.6-0.1-0.9-0.8-0.9c-0.3,0-0.7-0.3-1-0.4C12.8,13.1,12.7,13.1,12.4,12.9z M25.2,8.9
	c-1.2,0.7-2.2,1.3-3.2,2c-0.4,0.3-0.3,1.4,0.2,1.7c0.9,0.7,1.9,0.4,2.8,0.4c0.1,0,0.3-0.3,0.3-0.4C25.2,11.5,25.2,10.3,25.2,8.9
	L25.2,8.9z M8.7,9c0,0.9,0,1.5,0,2.2c0,2,0.2,2.1,2.2,1.8c0.9-0.2,1.3-0.6,1.3-1.5c0-0.2,0-0.3-0.1-0.5c-0.1-0.1-0.2-0.2-0.4-0.3
	c-0.7-0.4-1.3-0.8-2-1.2C9.4,9.4,9.2,9.3,8.7,9L8.7,9z M21.4,15.6l3.8,2.2c0-0.9,0-1.6,0-2.3c0-2.2,0.3-1.8-1.9-1.8h-0.1
	c-0.2,0.4-0.3,0.8-0.6,1.1C22.3,15.1,21.9,15.3,21.4,15.6L21.4,15.6z M12.5,15.6c-0.4-0.2-0.7-0.4-1.1-0.7c-0.2-0.2-0.4-0.4-0.4-0.6
	c-0.1-0.5-0.3-0.6-0.8-0.6c-1.6,0.1-1.5-0.2-1.5,1.5c0,0.3,0,0.6,0,0.9v1.5l0.2,0.1L12.5,15.6z M17.2,24.5l0.2,0.1
	c0.9-0.8,1.9-1.5,2.8-2.4c0.1-0.1,0.1-0.1,0.1-0.2s0-0.2,0-0.2c-0.4-0.7-0.8-1.3-1.3-2c-0.6,0.6-1.1,1.1-1.6,1.7
	c-0.1,0.1-0.2,0.3-0.2,0.5C17.2,22.8,17.2,23.6,17.2,24.5L17.2,24.5z M14.8,19.9c-0.4,0.5-0.7,1.1-1.1,1.6c-0.3,0.4-0.3,0.6,0.1,0.9
	c0.8,0.6,1.5,1.3,2.2,1.9c0.2,0.1,0.3,0.2,0.5,0.3C16.7,22.7,16.8,21,14.8,19.9L14.8,19.9z M18.5,19.5c-1.7-1.3-1.5-1.2-3.1-0.1
	l1.5,1.5C17.4,20.4,17.9,20,18.5,19.5L18.5,19.5z M13,11.6l-0.2,0.1c0.1,0.3,0.1,0.7,0.3,0.8c0.5,0.4,1,0.8,1.8,0.4
	C14.3,12.2,13.6,11.9,13,11.6z M21,11.5c-0.7,0.4-1.4,0.7-1.9,1.3c0.7,0.5,1.2,0.1,1.7-0.2C21.2,12.4,21.1,12,21,11.5L21,11.5z"/>
</svg>
