<svg width="14" height="14" viewBox="0 0 14 14" fill="none" xmlns="http://www.w3.org/2000/svg">
<path d="M13.6667 10.28V12.28C13.6674 12.4657 13.6294 12.6494 13.555 12.8195C13.4806 12.9897 13.3716 13.1424 13.2347 13.2679C13.0979 13.3934 12.9364 13.489 12.7605 13.5485C12.5846 13.6079 12.3983 13.63 12.2134 13.6133C10.1619 13.3904 8.19135 12.6894 6.46002 11.5666C4.84924 10.5431 3.48358 9.17743 2.46002 7.56665C1.33334 5.82745 0.632184 3.84731 0.413355 1.78665C0.396695 1.60229 0.418605 1.41649 0.477688 1.24107C0.536772 1.06564 0.631735 0.904443 0.756532 0.767731C0.881329 0.631019 1.03322 0.521789 1.20255 0.446998C1.37187 0.372206 1.55492 0.333491 1.74002 0.333317H3.74002C4.06356 0.330132 4.37722 0.444702 4.62253 0.655672C4.86784 0.866641 5.02807 1.15961 5.07335 1.47998C5.15777 2.12003 5.31432 2.74847 5.54002 3.35332C5.62972 3.59193 5.64913 3.85126 5.59596 4.10057C5.54279 4.34988 5.41926 4.57872 5.24002 4.75998L4.39336 5.60665C5.34239 7.27568 6.72432 8.65761 8.39336 9.60665L9.24002 8.75998C9.42128 8.58074 9.65012 8.45722 9.89944 8.40405C10.1487 8.35087 10.4081 8.37029 10.6467 8.45998C11.2515 8.68568 11.88 8.84223 12.52 8.92665C12.8439 8.97234 13.1396 9.13545 13.351 9.38498C13.5625 9.63451 13.6748 9.95303 13.6667 10.28Z" fill="#B8B7B7"/>
</svg>
