<svg width="13" height="15" viewBox="0 0 13 15" fill="none" xmlns="http://www.w3.org/2000/svg">
<path d="M6.93945 7.05884H6.0571V11.9118H6.93945V7.05884Z" fill="#333333"/>
<path d="M8.70508 7.05884H7.82272V11.9118H8.70508V7.05884Z" fill="#333333"/>
<path d="M5.17578 7.05884H4.29343V11.9118H5.17578V7.05884Z" fill="#333333"/>
<path d="M0.763784 1.76471H4.2932V1.32353C4.2932 0.593735 4.8869 0 5.61673 0H7.38143C8.11126 0 8.70496 0.593735 8.70496 1.32353V1.76471H12.2344V4.41176H11.3153L10.504 13.7424C10.469 14.4485 9.8904 15 9.18214 15H3.81605C3.10779 15 2.5292 14.4485 2.49417 13.7424L1.68284 4.41176H0.763784V1.76471ZM7.82261 1.32353C7.82261 1.08026 7.6247 0.882353 7.38143 0.882353H5.61673C5.37343 0.882353 5.17555 1.08026 5.17555 1.32353V1.76471H7.82261V1.32353ZM11.352 2.64706H1.64614V3.52941H11.352V2.64706ZM3.37523 13.6948C3.38511 13.9319 3.57873 14.1176 3.81602 14.1176H9.18214C9.41943 14.1176 9.61305 13.9319 9.62293 13.6948C10.4861 3.76226 10.4271 4.44141 10.4297 4.41176H2.56849C2.57084 4.43838 2.5159 3.80679 3.37523 13.6948Z" fill="#333333"/>
</svg>
